<svg  viewBox="0 0 13 9" fill="none" xmlns="http://www.w3.org/2000/svg">
<path d="M0.486951 2.6849L5.58561 7.72413C5.69609 7.83552 5.82754 7.92394 5.97237 7.98428C6.1172 8.04462 6.27255 8.07568 6.42944 8.07568C6.58634 8.07568 6.74168 8.04462 6.88651 7.98428C7.03134 7.92394 7.16279 7.83552 7.27327 7.72413L12.3125 2.6849C12.4239 2.57441 12.5123 2.44296 12.5727 2.29813C12.633 2.1533 12.6641 1.99796 12.6641 1.84106C12.6641 1.68417 12.633 1.52882 12.5727 1.38399C12.5123 1.23916 12.4239 1.10772 12.3125 0.997229C12.0898 0.77587 11.7886 0.651623 11.4746 0.651623C11.1606 0.651623 10.8594 0.77587 10.6367 0.997229L6.42944 5.20451L2.22216 0.997228C2.00079 0.77766 1.702 0.653877 1.39021 0.652564C1.2338 0.651659 1.07874 0.681639 0.933937 0.740784C0.789134 0.799929 0.657428 0.887077 0.546375 0.997228C0.431001 1.10374 0.337879 1.23206 0.272384 1.37477C0.20689 1.51748 0.170323 1.67175 0.164798 1.82867C0.159273 1.9856 0.184898 2.14206 0.240192 2.28902C0.295487 2.43598 0.379355 2.57053 0.486951 2.6849Z" fill="#1C1917"/>
</svg>
