<svg viewBox="0 0 20 21" fill="none" xmlns="http://www.w3.org/2000/svg">
<path d="M15.8359 2.38037C15.6149 2.38037 15.403 2.46817 15.2467 2.62445C15.0904 2.78073 15.0026 2.99269 15.0026 3.2137V7.7637L14.1693 8.32204V3.2137C14.1693 2.99269 14.0815 2.78073 13.9252 2.62445C13.7689 2.46817 13.557 2.38037 13.3359 2.38037C13.1149 2.38037 12.903 2.46817 12.7467 2.62445C12.5904 2.78073 12.5026 2.99269 12.5026 3.2137V8.32204L11.6693 7.7637V3.2137C11.6693 2.99269 11.5815 2.78073 11.4252 2.62445C11.2689 2.46817 11.057 2.38037 10.8359 2.38037C10.6149 2.38037 10.403 2.46817 10.2467 2.62445C10.0904 2.78073 10.0026 2.99269 10.0026 3.2137V8.2137C10.0033 8.35096 10.0379 8.48592 10.1033 8.60658C10.1688 8.72724 10.263 8.82988 10.3776 8.90537L12.5026 10.3304V18.2137C12.5026 18.4347 12.5904 18.6467 12.7467 18.803C12.903 18.9592 13.1149 19.047 13.3359 19.047C13.557 19.047 13.7689 18.9592 13.9252 18.803C14.0815 18.6467 14.1693 18.4347 14.1693 18.2137V10.3304L16.2943 8.90537C16.4089 8.82988 16.5031 8.72724 16.5685 8.60658C16.634 8.48592 16.6686 8.35096 16.6693 8.2137V3.2137C16.6693 2.99269 16.5815 2.78073 16.4252 2.62445C16.2689 2.46817 16.057 2.38037 15.8359 2.38037ZM7.5026 2.38037C6.39754 2.38037 5.33773 2.81936 4.55633 3.60076C3.77492 4.38216 3.33594 5.44197 3.33594 6.54704V11.547C3.33594 11.7681 3.42374 11.98 3.58002 12.1363C3.7363 12.2926 3.94826 12.3804 4.16927 12.3804H6.66927V18.2137C6.66927 18.4347 6.75707 18.6467 6.91335 18.803C7.06963 18.9592 7.28159 19.047 7.5026 19.047C7.72362 19.047 7.93558 18.9592 8.09186 18.803C8.24814 18.6467 8.33594 18.4347 8.33594 18.2137V3.2137C8.33594 2.99269 8.24814 2.78073 8.09186 2.62445C7.93558 2.46817 7.72362 2.38037 7.5026 2.38037ZM6.66927 10.7137H5.0026V6.54704C5.00233 6.02983 5.16248 5.52526 5.46098 5.10289C5.75948 4.68051 6.18164 4.36111 6.66927 4.1887V10.7137Z" fill="#44403C"/>
</svg>
