<svg width="18" height="16" viewBox="0 0 18 16" fill="none" xmlns="http://www.w3.org/2000/svg">
<path d="M15.3 0.551758H2.7C1.98392 0.551758 1.29716 0.84603 0.790812 1.36984C0.284464 1.89365 0 2.60408 0 3.34486V12.6552C0 13.396 0.284464 14.1064 0.790812 14.6302C1.29716 15.154 1.98392 15.4483 2.7 15.4483H15.3C16.0161 15.4483 16.7028 15.154 17.2092 14.6302C17.7155 14.1064 18 13.396 18 12.6552V3.34486C18 2.60408 17.7155 1.89365 17.2092 1.36984C16.7028 0.84603 16.0161 0.551758 15.3 0.551758ZM2.7 2.41383H15.3C15.5387 2.41383 15.7676 2.51192 15.9364 2.68652C16.1052 2.86112 16.2 3.09794 16.2 3.34486L9 7.88831L1.8 3.34486C1.8 3.09794 1.89482 2.86112 2.0636 2.68652C2.23239 2.51192 2.46131 2.41383 2.7 2.41383ZM16.2 12.6552C16.2 12.9021 16.1052 13.1389 15.9364 13.3135C15.7676 13.4882 15.5387 13.5862 15.3 13.5862H2.7C2.46131 13.5862 2.23239 13.4882 2.0636 13.3135C1.89482 13.1389 1.8 12.9021 1.8 12.6552V5.46762L8.532 9.72245C8.66882 9.80416 8.82402 9.84718 8.982 9.84718C9.13998 9.84718 9.29518 9.80416 9.432 9.72245L16.2 5.46762V12.6552Z" fill="#1C1917"/>
</svg>
