<svg viewBox="0 0 24 25" fill="none" xmlns="http://www.w3.org/2000/svg">
<g clip-path="url(#clip0_3346_4091)">
<path d="M23.625 12.3491C23.625 5.92725 18.4219 0.724121 12 0.724121C5.57812 0.724121 0.375 5.92725 0.375 12.3491C0.375 18.1513 4.62609 22.9607 10.1836 23.8335V15.7096H7.23047V12.3491H10.1836V9.78787C10.1836 6.87459 11.918 5.26537 14.5744 5.26537C15.8466 5.26537 17.1769 5.49225 17.1769 5.49225V8.35162H15.7106C14.2669 8.35162 13.8164 9.24787 13.8164 10.1671V12.3491H17.0405L16.5248 15.7096H13.8164V23.8335C19.3739 22.9607 23.625 18.1513 23.625 12.3491Z" fill="#A8A29E"/>
</g>
<defs>
<clipPath id="clip0_3346_4091">
<rect width="24" height="24" fill="white" transform="translate(0 0.349121)"/>
</clipPath>
</defs>
</svg>
