<svg width="108" height="107" viewBox="0 0 108 107" fill="none" xmlns="http://www.w3.org/2000/svg">
<path d="M39.7537 102.789C39.8121 102.892 39.9047 103.008 40.0315 103.135C40.1566 103.271 40.3107 103.404 40.4939 103.536C40.6771 103.668 40.8795 103.788 41.101 103.896C41.3225 104.004 41.5581 104.087 41.8077 104.144C42.3536 104.268 42.7823 104.26 43.0938 104.117C43.4053 103.975 43.6019 103.725 43.6838 103.366C43.7444 103.101 43.7183 102.873 43.6057 102.683C43.4914 102.501 43.2937 102.325 43.0126 102.154C42.7316 101.983 42.3744 101.787 41.9409 101.565C41.4096 101.304 40.9586 101.033 40.588 100.751C40.2155 100.478 39.9549 100.164 39.8059 99.8098C39.6569 99.4558 39.6394 99.0292 39.7534 98.53C39.8495 98.1088 40.0103 97.764 40.2357 97.4954C40.4611 97.2268 40.7364 97.0271 41.0617 96.8962C41.3852 96.7731 41.7409 96.7066 42.1289 96.6966C42.515 96.6945 42.9187 96.7415 43.3399 96.8376C43.7532 96.932 44.1568 97.0692 44.5506 97.2494C44.9366 97.4277 45.2981 97.6415 45.6351 97.8908C45.9625 98.146 46.2546 98.4301 46.5114 98.7431L45.6584 99.7301C45.5801 99.6055 45.4616 99.4595 45.3029 99.292C45.1347 99.1305 44.9382 98.9667 44.7135 98.8005C44.4811 98.6326 44.2256 98.4758 43.947 98.3302C43.6588 98.1905 43.3588 98.0851 43.0468 98.0139C42.5242 97.8946 42.106 97.8935 41.792 98.0106C41.4685 98.1337 41.2676 98.3669 41.1893 98.71C41.1252 98.9908 41.1642 99.2336 41.3062 99.4383C41.4464 99.6508 41.6747 99.8548 41.9912 100.05C42.3077 100.245 42.6905 100.456 43.1395 100.681C43.6517 100.954 44.0714 101.218 44.3988 101.474C44.7245 101.737 44.9497 102.026 45.0746 102.342C45.1899 102.663 45.1986 103.039 45.1007 103.468C44.9761 104.014 44.7385 104.444 44.3878 104.757C44.0354 105.079 43.6117 105.282 43.1166 105.366C42.6119 105.456 42.0749 105.436 41.5055 105.306C41.1312 105.22 40.7861 105.096 40.4703 104.934C40.1527 104.78 39.8657 104.599 39.6091 104.393C39.3448 104.185 39.1122 103.964 38.9114 103.729L39.7537 102.789Z" fill="white"/>
<path d="M36.0707 99.3067C35.8451 99.7752 35.5418 100.193 35.1608 100.56C34.7763 100.934 34.337 101.229 33.8428 101.444C33.338 101.662 32.8029 101.769 32.2374 101.763C31.6685 101.764 31.0922 101.624 30.5083 101.343C29.8164 101.01 29.2945 100.563 28.9427 100.003C28.5874 99.45 28.4053 98.8695 28.3962 98.2613L29.6548 98.0816C29.6497 98.461 29.7155 98.7946 29.8522 99.0823C29.9816 99.3667 30.1588 99.6074 30.3835 99.8044C30.6011 99.998 30.8324 100.154 31.0775 100.272C31.4811 100.466 31.8742 100.553 32.2567 100.533C32.6358 100.521 32.9941 100.431 33.3316 100.265C33.6618 100.096 33.9608 99.8711 34.2286 99.5916C34.4892 99.3087 34.6993 99.0014 34.859 98.6699C35.036 98.3023 35.1466 97.916 35.1906 97.511C35.2313 97.1132 35.2077 96.7289 35.1199 96.3581C35.0214 95.991 34.8572 95.6589 34.6274 95.3618C34.3975 95.0646 34.1024 94.8293 33.742 94.6557C33.497 94.5377 33.2203 94.4577 32.9119 94.4158C32.6036 94.3739 32.2943 94.3892 31.9841 94.4618C31.6632 94.5381 31.365 94.6964 31.0895 94.9366L30.3599 93.8794C30.7025 93.5738 31.1073 93.3692 31.5745 93.2656C32.0345 93.1586 32.5065 93.1373 32.9905 93.2016C33.4673 93.2626 33.9075 93.3902 34.3112 93.5846C34.8517 93.8449 35.2917 94.1944 35.6309 94.633C35.9668 95.0789 36.2066 95.5673 36.3504 96.0983C36.4908 96.6365 36.5383 97.1833 36.4929 97.7386C36.444 98.301 36.3032 98.8237 36.0707 99.3067Z" fill="white"/>
<path d="M28.7422 90.614L23.4301 97.2752L20.5311 94.9633C20.2308 94.7239 20.0055 94.4419 19.8551 94.1173C19.7047 93.7927 19.621 93.4548 19.6043 93.1038C19.5812 92.7477 19.6219 92.4016 19.7264 92.0653C19.8245 91.7241 19.9809 91.419 20.1953 91.1501C20.4298 90.8561 20.7074 90.617 21.0282 90.4329C21.349 90.2487 21.6868 90.1395 22.0416 90.1052C22.3901 90.066 22.7306 90.1073 23.0631 90.2292L23.5165 86.4466L24.6986 87.3893L24.2954 90.8589L25.8434 92.0934L27.6914 89.776L28.7422 90.614ZM25.1027 93.0222L23.2638 91.5558C23.07 91.4011 22.8531 91.3203 22.6132 91.3131C22.3733 91.306 22.1347 91.3613 21.8975 91.4792C21.6553 91.6032 21.4444 91.7778 21.2649 92.003C21.0803 92.2344 20.9658 92.4807 20.9212 92.7419C20.8716 93.0094 20.8833 93.2642 20.9561 93.5065C21.0227 93.7438 21.1498 93.9372 21.3374 94.0869L23.12 95.5084L25.1027 93.0222Z" fill="white"/>
<path d="M18.5511 80.8226C18.9351 81.3042 19.188 81.8137 19.3096 82.3512C19.4312 82.8886 19.4448 83.4252 19.3502 83.9611C19.2494 84.5019 19.0612 85.0101 18.7856 85.4857C18.4988 85.96 18.1427 86.3668 17.7174 86.706C17.2733 87.0601 16.7863 87.3155 16.2563 87.4721C15.7201 87.6337 15.1809 87.6953 14.6387 87.657C14.0903 87.6237 13.5707 87.4854 13.0801 87.2423C12.5782 86.9979 12.1452 86.6474 11.7811 86.1908C11.402 85.7154 11.1548 85.2066 11.0394 84.6641C10.9191 84.1155 10.9118 83.5738 11.0176 83.0393C11.1184 82.4984 11.309 81.9934 11.5896 81.524C11.8652 81.0484 12.2126 80.6435 12.6316 80.3093C13.0757 79.9552 13.5659 79.6973 14.1021 79.5357C14.6271 79.3729 15.1638 79.3081 15.7122 79.3414C16.2544 79.3798 16.7733 79.5236 17.2689 79.773C17.7596 80.0162 18.187 80.366 18.5511 80.8226ZM16.8645 85.6364C17.1772 85.387 17.4407 85.0951 17.6548 84.7606C17.869 84.426 18.0194 84.0758 18.1062 83.7099C18.1817 83.3427 18.1804 82.9754 18.1023 82.6079C18.0241 82.2405 17.8554 81.8941 17.596 81.5689C17.3267 81.2311 17.0184 80.9858 16.6714 80.8328C16.3243 80.6799 15.9652 80.6081 15.5941 80.6175C15.2118 80.6257 14.8393 80.6976 14.4768 80.8332C14.108 80.9738 13.7766 81.1613 13.4827 81.3958C13.1699 81.6452 12.9096 81.9346 12.7017 82.2641C12.4825 82.5924 12.3352 82.9401 12.2597 83.3073C12.1779 83.6795 12.1761 84.0493 12.2542 84.4168C12.3274 84.7779 12.4911 85.118 12.7455 85.437C13.0149 85.7748 13.3231 86.0201 13.6702 86.1731C14.0173 86.3261 14.3789 86.4009 14.7549 86.3978C15.131 86.3946 15.5028 86.3283 15.8703 86.199C16.2329 86.0633 16.5642 85.8758 16.8645 85.6364Z" fill="white"/>
<path d="M14.2931 74.4713L6.61681 78.168L6.03367 76.9571L12.6396 73.7758L10.6559 69.6566L11.7262 69.1412L14.2931 74.4713Z" fill="white"/>
<path d="M10.5596 65.1034L2.25324 66.9993L1.95417 65.689L9.10234 64.0575L8.08498 59.6001L9.24319 59.3357L10.5596 65.1034Z" fill="white"/>
<path d="M9.70186 45.063L1.39547 43.1671L2.06838 40.2189C2.2731 39.322 2.63118 38.616 3.14263 38.1008C3.64627 37.584 4.2478 37.2494 4.9472 37.0972C5.64058 36.9355 6.36944 36.9418 7.13378 37.1163C7.97612 37.3085 8.67099 37.6436 9.2184 38.1213C9.76759 38.5913 10.1443 39.1697 10.3487 39.8564C10.553 40.543 10.5617 41.2958 10.3748 42.1148L9.70186 45.063ZM6.82937 38.45C6.24442 38.3165 5.70473 38.3082 5.21032 38.4251C4.70989 38.5324 4.2886 38.7604 3.94645 39.109C3.59828 39.448 3.35833 39.9061 3.22659 40.4833L2.85276 42.1211L8.84272 43.4883L9.21655 41.8504C9.35006 41.2655 9.32962 40.7438 9.15523 40.2856C8.98262 39.8195 8.69416 39.4295 8.28986 39.1157C7.88556 38.8018 7.39873 38.5799 6.82937 38.45Z" fill="white"/>
<path d="M13.7307 33.244C13.4634 33.799 13.1141 34.2479 12.6826 34.5906C12.2512 34.9334 11.7736 35.1784 11.2498 35.3257C10.7188 35.4696 10.1792 35.5205 9.63117 35.4786C9.07936 35.4259 8.55839 35.2816 8.06826 35.0456C7.55651 34.7991 7.11511 34.4711 6.74407 34.0616C6.36581 33.6485 6.07632 33.1895 5.8756 32.6844C5.66768 32.1758 5.56681 31.6477 5.57299 31.1002C5.57543 30.542 5.70335 29.9998 5.95674 29.4736C6.22054 28.9258 6.57176 28.4823 7.01041 28.143C7.45253 27.7965 7.93735 27.555 8.46488 27.4183C8.99589 27.2745 9.53369 27.2271 10.0783 27.2763C10.6264 27.3182 11.1419 27.4555 11.6248 27.6881C12.1365 27.9345 12.5815 28.2642 12.9598 28.6773C13.3343 29.0796 13.6255 29.5351 13.8335 30.0436C14.0342 30.5487 14.1297 31.0787 14.1201 31.6334C14.1139 32.181 13.9841 32.7178 13.7307 33.244ZM8.66182 33.813C9.02221 33.9866 9.39955 34.0973 9.79385 34.1451C10.1882 34.1929 10.569 34.1765 10.9363 34.0959C11.2999 34.0046 11.6303 33.8441 11.9275 33.6143C12.2246 33.3844 12.4634 33.0821 12.6439 32.7073C12.8314 32.3181 12.9187 31.9339 12.9059 31.5548C12.8931 31.1758 12.802 30.8211 12.6325 30.4908C12.4593 30.1499 12.2329 29.8456 11.9534 29.5778C11.6667 29.3065 11.354 29.0893 11.0152 28.9262C10.6548 28.7526 10.2811 28.6437 9.89398 28.5993C9.50315 28.5443 9.12593 28.5624 8.76232 28.6537C8.3915 28.7415 8.05752 28.9003 7.76037 29.1302C7.46669 29.3528 7.23134 29.6479 7.05432 30.0155C6.86688 30.4047 6.77955 30.7889 6.79234 31.168C6.80512 31.547 6.89453 31.9053 7.06056 32.2428C7.22658 32.5802 7.4476 32.8864 7.72362 33.1614C8.00311 33.4292 8.31585 33.6464 8.66182 33.813Z" fill="white"/>
<path d="M11.3089 20.9471L12.0944 19.962L15.0139 20.9396L13.4187 18.3014L14.2043 17.3163L16.2563 20.8252L19.498 21.7835L15.71 15.3706L16.6303 14.2166L21.1142 22.2589L20.3885 23.1689L16.4099 22.0375L18.3908 25.6739L17.6576 26.5933L8.82665 24.002L9.73944 22.8574L16.842 25.1141L15.1863 22.1668L11.3089 20.9471Z" fill="white"/>
<path d="M20.2537 14.8444L24.0096 19.5542L22.9588 20.3921L17.6467 13.7309L18.5098 13.0426L26.1196 14.8478L22.2889 10.0443L23.349 9.19882L28.6537 15.8506L27.7343 16.5839L20.2537 14.8444Z" fill="white"/>
<path d="M43.6498 5.12102C43.6979 5.3316 43.6917 5.53816 43.6312 5.74069C43.569 5.93542 43.4606 6.10785 43.3062 6.25798C43.1577 6.39854 42.9743 6.49374 42.7559 6.54359C42.5532 6.58987 42.3505 6.58279 42.148 6.52234C41.9515 6.45231 41.779 6.34396 41.6307 6.1973C41.4883 6.04105 41.3922 5.85374 41.3424 5.63536C41.2961 5.43257 41.3041 5.23381 41.3663 5.03909C41.4346 4.83478 41.5429 4.66234 41.6914 4.52179C41.8458 4.37165 42.0244 4.27344 42.2272 4.22716C42.4456 4.17731 42.6531 4.1874 42.8496 4.25743C43.0521 4.31788 43.2245 4.42623 43.3669 4.58247C43.5074 4.73092 43.6017 4.91043 43.6498 5.12102Z" fill="white"/>
<path d="M68.2463 3.60947C68.1879 3.50587 68.0953 3.39037 67.9685 3.26295C67.8434 3.12773 67.6893 2.99409 67.5061 2.86201C67.3229 2.72993 67.1205 2.60989 66.899 2.50189C66.6775 2.39389 66.4419 2.31141 66.1923 2.25444C65.6464 2.12983 65.2177 2.13865 64.9062 2.28091C64.5947 2.42317 64.3981 2.67369 64.3162 3.03246C64.2556 3.29764 64.2817 3.52514 64.3943 3.71495C64.5086 3.89696 64.7063 4.07338 64.9874 4.2442C65.2684 4.41502 65.6256 4.61144 66.0591 4.83346C66.5904 5.09422 67.0414 5.36537 67.412 5.6469C67.7845 5.92064 68.0451 6.23452 68.1941 6.58854C68.3431 6.94256 68.3606 7.36916 68.2466 7.86832C68.1505 8.28949 67.9897 8.63436 67.7643 8.90293C67.5389 9.17151 67.2636 9.37124 66.9383 9.50214C66.6148 9.62524 66.2591 9.69176 65.8711 9.70168C65.485 9.70381 65.0813 9.65681 64.6601 9.56068C64.2468 9.46633 63.8432 9.32908 63.4494 9.14894C63.0634 8.97058 62.7019 8.75678 62.3649 8.50754C62.0375 8.25229 61.7454 7.96817 61.4886 7.65518L62.3416 6.66824C62.4199 6.79278 62.5384 6.9388 62.6971 7.10632C62.8653 7.26781 63.0618 7.43164 63.2865 7.5978C63.5189 7.76573 63.7744 7.92252 64.053 8.06816C64.3412 8.20778 64.6412 8.3132 64.9532 8.38441C65.4758 8.50368 65.894 8.50477 66.208 8.38769C66.5315 8.26459 66.7324 8.03145 66.8107 7.68828C66.8748 7.4075 66.8358 7.16474 66.6938 6.96001C66.5536 6.74748 66.3253 6.54356 66.0088 6.34824C65.6923 6.15292 65.3095 5.94247 64.8605 5.71689C64.3483 5.44409 63.9286 5.18006 63.6012 4.9248C63.2755 4.66175 63.0503 4.37237 62.9254 4.05667C62.8101 3.73494 62.8014 3.3596 62.8993 2.93063C63.0239 2.38467 63.2615 1.95477 63.6122 1.64092C63.9646 1.31927 64.3883 1.11648 64.8834 1.03254C65.3881 0.942589 65.9251 0.962588 66.4945 1.09254C66.8688 1.17799 67.2139 1.30188 67.5297 1.46422C67.8473 1.61876 68.1343 1.79916 68.3909 2.00542C68.6552 2.21345 68.8878 2.43476 69.0886 2.66933L68.2463 3.60947Z" fill="white"/>
<path d="M71.9293 7.09165C72.1549 6.62315 72.4582 6.20537 72.8392 5.83833C73.2237 5.46407 73.663 5.16951 74.1572 4.95464C74.662 4.73604 75.1971 4.62969 75.7626 4.63561C76.3315 4.63432 76.9078 4.77425 77.4917 5.05541C78.1836 5.38863 78.7055 5.8353 79.0573 6.39541C79.4126 6.94832 79.5947 7.52885 79.6038 8.13699L78.3452 8.3167C78.3503 7.93734 78.2845 7.60376 78.1478 7.31597C78.0184 7.03164 77.8412 6.79096 77.6165 6.59393C77.3989 6.40036 77.1676 6.24457 76.9225 6.12655C76.5189 5.93217 76.1258 5.84498 75.7433 5.86497C75.3642 5.87776 75.0059 5.96717 74.6684 6.13319C74.3382 6.30269 74.0392 6.52718 73.7714 6.80667C73.5108 7.08963 73.3007 7.39689 73.141 7.72845C72.964 8.09604 72.8534 8.48233 72.8094 8.88731C72.7687 9.28508 72.7923 9.66938 72.8801 10.0402C72.9786 10.4073 73.1428 10.7394 73.3726 11.0365C73.6025 11.3337 73.8976 11.569 74.258 11.7426C74.503 11.8606 74.7797 11.9406 75.0881 11.9825C75.3964 12.0245 75.7057 12.0091 76.0159 11.9365C76.3368 11.8602 76.635 11.7019 76.9105 11.4617L77.6401 12.5189C77.2975 12.8246 76.8927 13.0292 76.4255 13.1327C75.9655 13.2397 75.4935 13.261 75.0095 13.1967C74.5327 13.1358 74.0925 13.0081 73.6888 12.8137C73.1483 12.5534 72.7083 12.2039 72.3691 11.7653C72.0332 11.3194 71.7934 10.831 71.6496 10.3C71.5092 9.76179 71.4617 9.21504 71.5071 8.65976C71.556 8.09727 71.6968 7.57457 71.9293 7.09165Z" fill="white"/>
<path d="M79.2578 15.7843L84.5699 9.1231L87.4689 11.435C87.7692 11.6744 87.9945 11.9564 88.1449 12.281C88.2953 12.6057 88.379 12.9435 88.3957 13.2945C88.4188 13.6506 88.3781 13.9967 88.2736 14.333C88.1755 14.6742 88.0191 14.9793 87.8047 15.2482C87.5702 15.5422 87.2926 15.7813 86.9718 15.9654C86.651 16.1496 86.3132 16.2588 85.9584 16.2931C85.6099 16.3324 85.2694 16.291 84.9369 16.1691L84.4835 19.9517L83.3014 19.009L83.7046 15.5394L82.1566 14.3049L80.3086 16.6223L79.2578 15.7843ZM82.8973 13.3761L84.7362 14.8426C84.93 14.9972 85.1469 15.0781 85.3868 15.0852C85.6267 15.0923 85.8653 15.037 86.1025 14.9192C86.3447 14.7951 86.5556 14.6205 86.7351 14.3953C86.9197 14.1639 87.0342 13.9176 87.0788 13.6564C87.1284 13.3889 87.1167 13.1341 87.0439 12.8918C86.9773 12.6545 86.8502 12.4611 86.6626 12.3114L84.88 10.8899L82.8973 13.3761Z" fill="white"/>
<path d="M89.4489 25.5757C89.0649 25.0941 88.812 24.5846 88.6904 24.0472C88.5688 23.5097 88.5552 22.9731 88.6498 22.4373C88.7506 21.8964 88.9388 21.3882 89.2144 20.9126C89.5012 20.4383 89.8573 20.0315 90.2826 19.6924C90.7267 19.3382 91.2137 19.0828 91.7437 18.9262C92.2799 18.7646 92.8191 18.703 93.3613 18.7413C93.9097 18.7747 94.4293 18.9129 94.9199 19.156C95.4218 19.4004 95.8548 19.7509 96.2189 20.2075C96.598 20.6829 96.8452 21.1918 96.9606 21.7342C97.0809 22.2828 97.0882 22.8245 96.9824 23.359C96.8816 23.8999 96.691 24.405 96.4104 24.8743C96.1348 25.3499 95.7874 25.7548 95.3684 26.089C94.9243 26.4431 94.4341 26.701 93.8979 26.8626C93.3729 27.0254 92.8362 27.0902 92.2878 27.0569C91.7456 27.0186 91.2267 26.8747 90.7311 26.6253C90.2404 26.3822 89.813 26.0323 89.4489 25.5757ZM91.1355 20.7619C90.8228 21.0113 90.5593 21.3033 90.3452 21.6378C90.131 21.9723 89.9806 22.3225 89.8938 22.6884C89.8183 23.0556 89.8196 23.423 89.8977 23.7904C89.9759 24.1578 90.1446 24.5042 90.404 24.8294C90.6733 25.1672 90.9816 25.4125 91.3286 25.5655C91.6757 25.7185 92.0348 25.7902 92.4059 25.7808C92.7882 25.7726 93.1607 25.7008 93.5232 25.5651C93.892 25.4245 94.2234 25.237 94.5173 25.0026C94.8301 24.7532 95.0904 24.4637 95.2983 24.1342C95.5175 23.8059 95.6648 23.4582 95.7403 23.091C95.8221 22.7188 95.8239 22.349 95.7458 21.9816C95.6726 21.6204 95.5089 21.2803 95.2545 20.9613C94.9851 20.6235 94.6769 20.3782 94.3298 20.2252C93.9827 20.0723 93.6211 19.9974 93.2451 20.0005C92.869 20.0037 92.4972 20.07 92.1297 20.1993C91.7671 20.335 91.4358 20.5225 91.1355 20.7619Z" fill="white"/>
<path d="M93.7069 31.927L101.383 28.2303L101.966 29.4412L95.3604 32.6225L97.3441 36.7417L96.2738 37.2572L93.7069 31.927Z" fill="white"/>
<path d="M97.4404 41.2949L105.747 39.399L106.046 40.7093L98.8977 42.3409L99.915 46.7982L98.7568 47.0626L97.4404 41.2949Z" fill="white"/>
<path d="M98.2981 61.3355L106.605 63.2313L105.932 66.1795C105.727 67.0765 105.369 67.7825 104.857 68.2976C104.354 68.8145 103.752 69.149 103.053 69.3012C102.359 69.463 101.631 69.4566 100.866 69.2822C100.024 69.0899 99.329 68.7549 98.7816 68.2771C98.2324 67.8071 97.8557 67.2288 97.6513 66.5421C97.447 65.8554 97.4383 65.1026 97.6252 64.2836L98.2981 61.3355ZM101.171 67.9485C101.756 68.082 102.295 68.0903 102.79 67.9734C103.29 67.866 103.711 67.638 104.054 67.2894C104.402 66.9504 104.642 66.4923 104.773 65.9152L105.147 64.2773L99.1573 62.9101L98.7834 64.548C98.6499 65.133 98.6704 65.6546 98.8448 66.1129C99.0174 66.579 99.3058 66.9689 99.7101 67.2828C100.114 67.5966 100.601 67.8185 101.171 67.9485Z" fill="white"/>
<path d="M94.2693 73.1538C94.5366 72.5988 94.8859 72.15 95.3174 71.8072C95.7488 71.4645 96.2264 71.2194 96.7502 71.0721C97.2812 70.9283 97.8208 70.8773 98.3688 70.9193C98.9206 70.9719 99.4416 71.1162 99.9317 71.3523C100.443 71.5987 100.885 71.9267 101.256 72.3363C101.634 72.7493 101.924 73.2083 102.124 73.7135C102.332 74.222 102.433 74.7501 102.427 75.2976C102.425 75.8559 102.297 76.3981 102.043 76.9242C101.779 77.472 101.428 77.9155 100.99 78.2548C100.547 78.6013 100.063 78.8429 99.5351 78.9795C99.0041 79.1234 98.4663 79.1707 97.9217 79.1215C97.3736 79.0796 96.8581 78.9423 96.3752 78.7098C95.8635 78.4633 95.4185 78.1336 95.0402 77.7206C94.6657 77.3182 94.3745 76.8628 94.1665 76.3542C93.9658 75.8491 93.8703 75.3192 93.8799 74.7644C93.8861 74.2169 94.0159 73.68 94.2693 73.1538ZM99.3382 72.5848C98.9778 72.4112 98.6004 72.3006 98.2061 72.2527C97.8118 72.2049 97.431 72.2213 97.0637 72.3019C96.7001 72.3932 96.3697 72.5537 96.0725 72.7836C95.7754 73.0134 95.5366 73.3157 95.3561 73.6905C95.1686 74.0797 95.0813 74.4639 95.0941 74.843C95.1069 75.2221 95.198 75.5767 95.3675 75.907C95.5407 76.2479 95.7671 76.5523 96.0466 76.82C96.3333 77.0913 96.646 77.3085 96.9848 77.4716C97.3452 77.6452 97.7189 77.7541 98.106 77.7985C98.4968 77.8535 98.8741 77.8354 99.2377 77.7441C99.6085 77.6563 99.9425 77.4975 100.24 77.2677C100.533 77.045 100.769 76.7499 100.946 76.3823C101.133 75.9931 101.22 75.609 101.208 75.2299C101.195 74.8508 101.105 74.4925 100.939 74.1551C100.773 73.8176 100.552 73.5114 100.276 73.2364C99.9969 72.9686 99.6842 72.7514 99.3382 72.5848Z" fill="white"/>
<path d="M96.6911 85.4512L95.9056 86.4363L92.9861 85.4588L94.5813 88.0969L93.7957 89.082L91.7437 85.5731L88.502 84.6148L92.29 91.0277L91.3697 92.1817L86.8858 84.1394L87.6115 83.2294L91.5901 84.3608L89.6092 80.7244L90.3424 79.805L99.1734 82.3963L98.2606 83.5409L91.158 81.2842L92.8137 84.2315L96.6911 85.4512Z" fill="white"/>
<path d="M87.7465 91.5537L83.9906 86.8439L85.0414 86.0059L90.3535 92.6671L89.4903 93.3555L81.8806 91.5502L85.7113 96.3538L84.6511 97.1992L79.3465 90.5474L80.2659 89.8142L87.7465 91.5537Z" fill="white"/>
<path d="M64.3502 101.277C64.3021 101.067 64.3083 100.86 64.3688 100.658C64.431 100.463 64.5394 100.29 64.6938 100.14C64.8423 99.9998 65.0257 99.9046 65.2441 99.8547C65.4468 99.8084 65.6495 99.8155 65.852 99.876C66.0485 99.946 66.221 100.054 66.3693 100.201C66.5117 100.357 66.6078 100.545 66.6576 100.763C66.7039 100.966 66.6959 101.165 66.6337 101.359C66.5654 101.564 66.4571 101.736 66.3086 101.877C66.1542 102.027 65.9756 102.125 65.7728 102.171C65.5544 102.221 65.3469 102.211 65.1504 102.141C64.9479 102.08 64.7755 101.972 64.6331 101.816C64.4926 101.667 64.3983 101.488 64.3502 101.277Z" fill="white"/>
</svg>
