<svg  viewBox="0 0 40 41" fill="none" xmlns="http://www.w3.org/2000/svg">
<rect x="1" y="1.65137" width="38" height="38" rx="19" stroke="white" stroke-width="2"/>
<path d="M19.4046 29.5354C18.2366 29.5354 17.2686 29.3594 16.5006 29.0074C15.7486 28.6554 15.1886 28.2234 14.8206 27.7114C14.4686 27.1834 14.2926 26.6714 14.2926 26.1754C14.2926 25.7754 14.4046 25.4314 14.6286 25.1434C14.8526 24.8554 15.1646 24.7034 15.5646 24.6874C15.9006 24.6714 16.1566 24.7354 16.3326 24.8794C16.5246 25.0234 16.6526 25.1914 16.7166 25.3834C16.7966 25.5754 16.8366 25.7594 16.8366 25.9354C16.8366 26.0954 16.8126 26.2634 16.7646 26.4394C16.7166 26.5994 16.6446 26.7674 16.5486 26.9434C16.7086 27.4074 17.0446 27.7514 17.5566 27.9754C18.0686 28.1834 18.6206 28.2874 19.2126 28.2874C20.3006 28.2874 21.1566 27.9754 21.7806 27.3514C22.4046 26.7274 22.7166 25.8714 22.7166 24.7834C22.7166 24.1434 22.6046 23.5194 22.3806 22.9114C22.1726 22.3034 21.7806 21.8074 21.2046 21.4234C20.6286 21.0394 19.7966 20.8634 18.7086 20.8954C18.5806 20.8954 18.4206 20.9034 18.2286 20.9194C18.0366 20.9194 17.8606 20.9274 17.7006 20.9434V19.6474C17.8606 19.6474 18.0126 19.6474 18.1566 19.6474C18.3006 19.6474 18.4446 19.6474 18.5886 19.6474C19.3886 19.6474 20.0286 19.4794 20.5086 19.1434C21.0046 18.8074 21.3646 18.3914 21.5886 17.8954C21.8126 17.3834 21.9246 16.8794 21.9246 16.3834C21.9406 15.7594 21.8606 15.2074 21.6846 14.7274C21.5246 14.2314 21.2526 13.8474 20.8686 13.5754C20.4846 13.2874 19.9566 13.1434 19.2846 13.1434C18.6606 13.1434 18.1166 13.3034 17.6526 13.6234C17.2046 13.9434 16.9166 14.2794 16.7886 14.6314C16.9326 14.8074 17.0286 14.9914 17.0766 15.1834C17.1406 15.3594 17.1726 15.5274 17.1726 15.6874C17.1726 15.8314 17.1246 16.0074 17.0286 16.2154C16.9486 16.4074 16.8126 16.5674 16.6206 16.6954C16.4446 16.8234 16.1966 16.8874 15.8766 16.8874C15.4926 16.8874 15.1966 16.7514 14.9886 16.4794C14.7966 16.2074 14.7006 15.8794 14.7006 15.4954C14.7006 15.0314 14.8766 14.5274 15.2286 13.9834C15.5806 13.4394 16.1246 12.9674 16.8606 12.5674C17.5966 12.1674 18.5246 11.9674 19.6446 11.9674C20.5406 11.9674 21.3646 12.1034 22.1166 12.3754C22.8846 12.6474 23.4926 13.0954 23.9406 13.7194C24.4046 14.3274 24.6366 15.1434 24.6366 16.1674C24.6366 16.6314 24.5166 17.1194 24.2766 17.6314C24.0366 18.1434 23.6366 18.6154 23.0766 19.0474C22.5326 19.4794 21.7806 19.8314 20.8206 20.1034C22.3406 20.2954 23.5086 20.8074 24.3246 21.6394C25.1566 22.4554 25.5726 23.4474 25.5726 24.6154C25.5726 25.7034 25.2926 26.6154 24.7326 27.3514C24.1726 28.0714 23.4206 28.6154 22.4766 28.9834C21.5486 29.3514 20.5246 29.5354 19.4046 29.5354Z" fill="white"/>
</svg>
