<svg  width="100%" height="100%" viewBox="0 0 40 41" fill="none" xmlns="http://www.w3.org/2000/svg">
<rect x="1" y="1.65137" width="38" height="38" rx="19" stroke="white" stroke-width="2"/>
<path d="M17.2888 29.1514V28.0954C17.7848 28.0634 18.1688 27.9594 18.4408 27.7834C18.7288 27.6074 18.9368 27.3434 19.0648 26.9914C19.1928 26.6234 19.2568 26.1514 19.2568 25.5754L19.2088 14.8234L16.4008 16.5754L15.8008 15.6154L20.7448 11.9674H21.7768L21.8008 26.1034C21.8008 26.4394 21.7928 26.7754 21.7768 27.1114C21.7768 27.4314 21.7608 27.7034 21.7288 27.9274C22.0328 27.8954 22.3608 27.8794 22.7128 27.8794C23.0648 27.8634 23.3848 27.8474 23.6728 27.8314V29.1514H17.2888Z" fill="white"/>
</svg>
