<svg  viewBox="0 0 40 41" fill="none" xmlns="http://www.w3.org/2000/svg">
<rect x="1" y="1.65137" width="38" height="38" rx="19" stroke="white" stroke-width="2"/>
<path d="M14.6224 29.1514C14.6224 28.3034 14.7424 27.5514 14.9824 26.8954C15.2384 26.2394 15.5744 25.6394 15.9904 25.0954C16.4064 24.5514 16.8784 24.0314 17.4064 23.5354C17.9344 23.0394 18.4704 22.5274 19.0144 21.9994C20.1024 20.9754 20.8784 20.0394 21.3424 19.1914C21.8224 18.3274 22.0624 17.4874 22.0624 16.6714C22.0624 16.0954 21.9824 15.5434 21.8224 15.0154C21.6624 14.4714 21.3824 14.0234 20.9824 13.6714C20.5824 13.3194 20.0304 13.1514 19.3264 13.1674C18.7344 13.1674 18.2064 13.3114 17.7424 13.5994C17.2944 13.8714 16.9824 14.2154 16.8064 14.6314C16.9824 14.7914 17.1024 14.9754 17.1664 15.1834C17.2304 15.3914 17.2624 15.5834 17.2624 15.7594C17.2624 15.9034 17.2144 16.0794 17.1184 16.2874C17.0384 16.4794 16.9024 16.6474 16.7104 16.7914C16.5184 16.9354 16.2624 17.0074 15.9424 17.0074C15.5424 16.9914 15.2304 16.8474 15.0064 16.5754C14.7984 16.2874 14.6944 15.9434 14.6944 15.5434C14.6944 15.2074 14.7984 14.8314 15.0064 14.4154C15.2144 13.9994 15.5344 13.6074 15.9664 13.2394C16.3984 12.8714 16.9264 12.5674 17.5504 12.3274C18.1904 12.0874 18.9344 11.9674 19.7824 11.9674C20.4224 11.9674 21.0464 12.0474 21.6544 12.2074C22.2624 12.3514 22.8144 12.5994 23.3104 12.9514C23.8064 13.2874 24.1984 13.7354 24.4864 14.2954C24.7744 14.8554 24.9184 15.5514 24.9184 16.3834C24.9184 16.7834 24.8384 17.2154 24.6784 17.6794C24.5184 18.1274 24.2464 18.6154 23.8624 19.1434C23.4944 19.6714 22.9984 20.2474 22.3744 20.8714C21.7504 21.4954 20.9664 22.1914 20.0224 22.9594C19.0144 23.7914 18.2064 24.5754 17.5984 25.3114C16.9904 26.0314 16.6384 26.6314 16.5424 27.1114L20.9344 27.2314C21.5904 27.2474 22.1584 27.2394 22.6384 27.2074C23.1344 27.1754 23.5184 27.0474 23.7904 26.8234C24.0784 26.5834 24.2224 26.1754 24.2224 25.5994H25.2064L25.0384 29.1514H14.6224Z" fill="white"/>
</svg>
